<?xml version="1.0" encoding="utf-8"?>
<!-- Generator: Adobe Illustrator 18.0.0, SVG Export Plug-In . SVG Version: 6.00 Build 0)  -->
<!DOCTYPE svg PUBLIC "-//W3C//DTD SVG 1.1//EN" "http://www.w3.org/Graphics/SVG/1.1/DTD/svg11.dtd">
<svg version="1.1" id="Ebene_1" xmlns="http://www.w3.org/2000/svg" xmlns:xlink="http://www.w3.org/1999/xlink" x="0px" y="0px"
	 viewBox="0 0 595.3 841.9" enable-background="new 0 0 595.3 841.9" xml:space="preserve">
<g>
	<path fill="#FEFEFF" d="M291.7,447c-89.7,0-179.4-0.1-269.1,0.2c-6.3,0-7.6-1.3-7.6-7.6c0.2-133.3,0.2-266.6,0-400
		c0-6.3,1.3-7.6,7.6-7.6c179.4,0.2,358.8,0.2,538.2,0c6.3,0,7.6,1.3,7.6,7.6c-0.2,133.3-0.2,266.6,0,400c0,6.3-1.3,7.6-7.6,7.6
		C471.1,446.9,381.4,447,291.7,447z M299,347c12.4,0,24.8-0.6,37.2,0.2c8.3,0.5,12-2.2,15.6-10c10.3-22.3,16.1-46.7,32.3-66.2
		c17.2-20.7,22.6-45.5,19.9-71.6c-4.7-45.7-36.8-81.1-81.7-92c-41.2-10-85.7,7.8-110.2,43.9c-25,36.9-24.3,84.3,2.6,121.1
		c8.9,12.1,15.9,24.9,21.4,38.7c4,10.1,9,19.9,13.1,30c1.9,4.7,4.7,6,9.5,5.9C272.1,346.8,285.6,347,299,347z M299.1,372.9
		c12,0,24.1-0.1,36.1,0c6.4,0.1,11.6-1.6,11.9-8.9c0.3-7.9-5.2-10.2-11.9-10.2c-24.1-0.1-48.2-0.1-72.3,0c-6.4,0-11.5,2.7-11.4,9.8
		c0.1,6.9,4.8,9.5,11.5,9.3C275,372.8,287.1,372.9,299.1,372.9z M298.9,400.2c9.2,0,18.4-0.1,27.6,0c7.2,0.1,10.3-4.9,10.2-10.4
		c-0.1-5.5-3.9-9.2-10.6-9c-17.7,0.3-35.4,0.2-53.1,0.1c-6.5,0-11.4,2.1-11.5,9.3c-0.2,7.9,5.2,10.1,12,10.1
		C282,400.2,290.5,400.2,298.9,400.2z M297.9,428.3c6.4,0,12.7-0.1,19.1,0c6,0.1,9.5-3.1,10-8.7c0.5-5.7-3-9.8-8.7-10
		c-12.7-0.5-25.5-0.5-38.2,0c-5.7,0.2-8.8,4.3-8.3,10.2c0.4,5.4,3.6,8.3,9,8.4C286.6,428.4,292.3,428.3,297.9,428.3z M232.1,100.7
		c-5.3-7.2-9.8-16.9-17.7-24c-2.2-2-5.4-1.1-7.8,0.9c-2.9,2.5-3.2,5.8-1.4,8.6c4.5,7.1,9.4,14.1,14.4,20.9c2.1,2.8,5.2,3.5,8.5,2
		C231,107.8,232.5,105.6,232.1,100.7z M425.7,172.7c7.9-3.1,16.8-6.3,25.5-10.2c3.4-1.5,3.4-5.4,2.1-8.4c-1.3-3.3-4.5-4.9-7.8-3.8
		c-8.3,2.8-16.6,6-24.7,9.3c-3.4,1.4-4.5,4.6-3.4,8C418.4,170.9,421,172.6,425.7,172.7z M428.9,237.1c-2.7,0.4-6.4,1-7.4,5.7
		c-0.8,4.1,1.5,7,5.1,8.1c7.7,2.4,15.5,4.2,23.3,6.2c4.6,1.2,7.8-1,9.1-5.1c1.5-4.5-1.4-7.6-5.3-8.8
		C445.9,241,438,239.4,428.9,237.1z M183.4,163.9c-0.6-1.1-1.1-3.2-2.4-3.9c-8.7-5.3-18.2-8.9-28.2-11c-3.1-0.7-5.4,1.5-6.2,4.6
		c-1,3.9,0.1,7.1,4,8.7c7.5,3,15,6,22.7,8.6C178.7,172.6,182.1,170.1,183.4,163.9z M150.5,255.4c5.6-1.5,13.7-3.5,21.8-5.7
		c4.1-1.1,5.4-4.2,4.7-8.2c-0.8-4.3-4.1-5.9-7.9-5.1c-8.2,1.7-16.4,3.9-24.5,6c-4.1,1.1-5.6,4.2-4.7,8.2
		C140.8,254.5,143.7,256.2,150.5,255.4z M396.4,82.7c0.5-2.1-0.9-4.3-3.2-5.5c-2.6-1.3-6.1-1.8-7.9,0.6
		c-5.7,7.6-11.1,15.5-16.3,23.5c-1.9,2.9,0.1,5.5,2.2,7.4c1.9,1.7,4.1,2.6,6.8,1.3C381.5,108.5,396.4,87.3,396.4,82.7z M293.6,67.7
		c0,3.9,0,7.7,0,11.6c0,4.6,2.4,7.6,6.8,7.8c4.6,0.2,6.9-3,6.9-7.5c0.1-7.7,0.1-15.5,0-23.2c0-4.4-1.8-7.6-6.7-7.7
		c-4.9-0.1-6.9,2.7-7,7.3C293.6,59.9,293.6,63.8,293.6,67.7z"/>
	<path d="M299,347c-13.5,0-26.9-0.2-40.4,0.1c-4.9,0.1-7.7-1.2-9.5-5.9c-4.1-10.1-9-19.9-13.1-30c-5.5-13.8-12.5-26.6-21.4-38.7
		c-26.9-36.8-27.6-84.1-2.6-121.1c24.5-36.2,69-53.9,110.2-43.9c44.9,10.8,77,46.3,81.7,92c2.7,26.1-2.7,50.8-19.9,71.6
		c-16.2,19.5-22.1,44-32.3,66.2c-3.6,7.7-7.3,10.5-15.6,10C323.9,346.4,311.4,347,299,347z M298.8,340.3c11,0,22-0.7,32.9,0.2
		c8.5,0.7,12.1-2.5,15.5-10.1c9.3-20.8,15.2-43.2,29.8-61.6c24.8-31.4,27.5-65.9,10.5-101.3c-17.7-37-48.9-55.8-89.2-55.6
		c-37.7,0.1-67.2,18-85.4,51.6c-17.9,33.1-17.3,67.2,3.3,98.4c13.2,19.9,24.5,40.4,32.5,62.5c4.8,13.1,11.9,18.1,25.6,16.1
		C282.4,339.4,290.7,340.3,298.8,340.3z"/>
	<path d="M299.1,372.9c-12,0-24.1-0.1-36.1,0.1c-6.7,0.1-11.4-2.4-11.5-9.3c-0.1-7.1,5.1-9.8,11.4-9.8c24.1-0.1,48.2-0.1,72.3,0
		c6.7,0,12.2,2.3,11.9,10.2c-0.3,7.3-5.5,9-11.9,8.9C323.2,372.9,311.2,372.9,299.1,372.9z"/>
	<path d="M298.9,400.2c-8.5,0-17,0-25.5,0c-6.8,0-12.2-2.2-12-10.1c0.2-7.2,5-9.3,11.5-9.3c17.7,0.1,35.4,0.3,53.1-0.1
		c6.8-0.1,10.5,3.5,10.6,9c0.1,5.5-2.9,10.6-10.2,10.4C317.4,400.1,308.2,400.2,298.9,400.2z"/>
	<path d="M297.9,428.3c-5.7,0-11.3,0.1-17,0c-5.4-0.1-8.6-3-9-8.4c-0.5-5.9,2.6-10,8.3-10.2c12.7-0.5,25.5-0.5,38.2,0
		c5.7,0.2,9.2,4.2,8.7,10c-0.5,5.6-4,8.8-10,8.7C310.7,428.3,304.3,428.3,297.9,428.3z"/>
	<path d="M232.1,100.7c0.4,4.9-1.1,7.1-3.9,8.4c-3.3,1.5-6.5,0.8-8.5-2c-5-6.8-9.9-13.7-14.4-20.9c-1.8-2.8-1.5-6.1,1.4-8.6
		c2.4-2,5.6-2.9,7.8-0.9C222.3,83.8,226.8,93.4,232.1,100.7z"/>
	<path d="M425.7,172.7c-4.7,0-7.3-1.8-8.3-5.1c-1.1-3.4,0-6.6,3.4-8c8.1-3.3,16.4-6.5,24.7-9.3c3.3-1.1,6.5,0.5,7.8,3.8
		c1.2,3.1,1.3,6.9-2.1,8.4C442.5,166.3,433.6,169.6,425.7,172.7z"/>
	<path d="M428.9,237.1c9.2,2.3,17.1,3.9,24.8,6.2c4,1.2,6.8,4.3,5.3,8.8c-1.3,4-4.5,6.2-9.1,5.1c-7.8-2-15.6-3.9-23.3-6.2
		c-3.6-1.1-5.9-4-5.1-8.1C422.4,238.1,426.2,237.5,428.9,237.1z"/>
	<path d="M183.4,163.9c-1.3,6.2-4.6,8.7-10.1,6.9c-7.7-2.6-15.2-5.6-22.7-8.6c-3.9-1.6-5-4.8-4-8.7c0.8-3.1,3.1-5.2,6.2-4.6
		c10,2.1,19.5,5.6,28.2,11C182.3,160.7,182.8,162.8,183.4,163.9z"/>
	<path d="M150.5,255.4c-6.8,0.8-9.7-0.8-10.6-4.9c-0.9-3.9,0.6-7.1,4.7-8.2c8.1-2.2,16.3-4.3,24.5-6c3.8-0.8,7,0.8,7.9,5.1
		c0.8,4-0.6,7.1-4.7,8.2C164.2,251.9,156,253.9,150.5,255.4z"/>
	<path d="M396.4,82.7c-0.1,4.6-15,25.8-18.3,27.4c-2.7,1.3-5,0.3-6.8-1.3c-2.2-1.9-4.1-4.6-2.2-7.4c5.2-8,10.6-15.9,16.3-23.5
		c1.8-2.4,5.4-1.9,7.9-0.6C395.5,78.4,396.9,80.6,396.4,82.7z"/>
	<path d="M293.6,67.7c0-3.9,0-7.7,0-11.6c0.1-4.6,2.1-7.4,7-7.3c4.9,0.1,6.7,3.3,6.7,7.7c0.1,7.7,0.1,15.5,0,23.2
		c-0.1,4.5-2.3,7.7-6.9,7.5c-4.4-0.2-6.8-3.2-6.8-7.8C293.7,75.4,293.6,71.5,293.6,67.7z"/>
	<path d="M298.8,340.3c-8.1,0-16.4-1-24.4,0.2c-13.7,2-20.8-3-25.6-16.1c-8-22.2-19.4-42.6-32.5-62.5c-20.6-31.2-21.3-65.3-3.3-98.4
		c18.2-33.6,47.7-51.5,85.4-51.6c40.3-0.1,71.5,18.6,89.2,55.6c16.9,35.4,14.3,69.9-10.5,101.3c-14.5,18.4-20.5,40.8-29.8,61.6
		c-3.4,7.6-7,10.8-15.5,10.1C320.9,339.7,309.8,340.3,298.8,340.3z"/>
</g>
</svg>
