<?xml version="1.0" encoding="utf-8"?>
<!-- Generator: Adobe Illustrator 18.0.0, SVG Export Plug-In . SVG Version: 6.00 Build 0)  -->
<!DOCTYPE svg PUBLIC "-//W3C//DTD SVG 1.1//EN" "http://www.w3.org/Graphics/SVG/1.1/DTD/svg11.dtd">
<svg version="1.1" id="Ebene_1" xmlns="http://www.w3.org/2000/svg" xmlns:xlink="http://www.w3.org/1999/xlink" x="0px" y="0px"
	 viewBox="0 0 595.3 841.9" enable-background="new 0 0 595.3 841.9" xml:space="preserve">
<g>
	<path fill="#FFFFFF" d="M594.1,299.5c0,93.5-0.1,187,0.2,280.5c0,7.4-1.1,9.4-9.1,9.4c-187.9-0.3-375.7-0.3-563.6-0.1
		c-7.4,0-9.4-1.1-9.4-9.1c0.3-187.9,0.3-375.7,0.1-563.6c0-7.4,1.1-9.4,9.1-9.4C209.3,7.6,397.2,7.6,585,7.4c7.4,0,9.4,1.1,9.4,9.1
		C594,110.8,594.1,205.2,594.1,299.5z"/>
	<path d="M383.2,246.6c12.1,32.8,0.5,71.5-28.3,93.7c-4.2,3.2-8.4,5.5-7.7,11.9c3.1,30.5-7.5,26.8-28.5,25.9
		c-4.3-2.5-9-1.3-13.5-1.2c-8,0.2-10.8-3.2-8.4-10.8c5.4-6.1,12.7-4.5,19.3-4.1c11.2,0.7,15.8-3.7,14.9-14.8c-0.6-7.4,2.9-13,9-17.3
		c23-16.2,32.8-38.6,30.6-66.5c-0.1-1.7,0.1-3.4,0.7-5C374.9,254.1,379.4,250.6,383.2,246.6z"/>
	<path d="M223.4,238.6c14.5-38.3,60.2-60.8,98.8-48.8c0.6,2.9,6.1,1.9,5,6.2c-1.1,4.2-4.6,4.6-8,5.1c-10.1,1.4-20.5-1.4-30.5,1.9
		c-23.5,9-43.6,21.8-52.9,46.9c-0.6,1.6-2.1,2.6-3.6,3.5c-7,3.7-11.5,3-10.3-6.3C222.3,244.3,221.7,241.2,223.4,238.6z"/>
	<path d="M262.4,395.8c-5.1-7.9-1.9-12.4,6.5-12.5c22.4-0.4,44.9-0.4,67.4,0.1c9.2,0.2,8.3,6.3,5.6,12.5c-2.8,2.1-5.8,3.6-9.3,3.6
		c-20.8,0.4-41.5,0.5-62.3-0.1C267.2,399.3,264.6,398,262.4,395.8z"/>
	<path d="M262.5,413.6c-3.6-3.9-3.3-7.9,0-11.9c2.2-2.5,5.1-3,8.2-3c21-0.1,42-0.3,63,0.1c2.2,0,4.2,0.7,6,2c4.8,3.6,5.2,8,2.2,13
		c-0.6,0.6-1.2,1.5-1.9,1.6c-24.8,3.8-49.6,3.2-74.5,0.4C264.2,415.8,263.4,414.5,262.5,413.6z"/>
	<path d="M290.3,458.1c-17.5-5.4-32.1-25.6-27.9-38.4c10.2-6,21.3-1.7,32-2.8c5-0.5,10.1-0.2,15.1,0.1c5.2,4.4,8.5,10.2,11.9,16
		c-4.8,3.5-10.4,2.2-15.8,2.5c-5.3,0.4-10.8-0.9-16.3,1.1c0.4,5.3,7.2,5.7,7.8,10.5C297.1,452.1,295.5,456.1,290.3,458.1z"/>
	<path d="M290.3,458.1c1.8-3.6,3.6-7.1,5.3-10.7c9.3-3.9,20.5-4.6,25.6-15.4c-1.9-0.8-3.7-1.7-5.6-2.3c-3-0.8-7.7,1.6-8.5-3
		c-0.7-3.9,4.8-4.2,6.5-7.1c9.3-4.4,18.6-4.3,27.9,0c7,10.1-3.4,15.6-6.9,22.1C325.6,458.5,308.4,464.2,290.3,458.1z"/>
	<path d="M257.2,347.3c-16.2-13-31.4-26.7-36.5-48.1c3.2-2.9,4-3.3,6.4,1.5c3.2,6.3,4.6,2.6,6.8-0.3c4.8-0.1,6.3,4,8.2,7.1
		c6,9.5,13,17.9,22.8,23.7c6.2,3.6,9,8.9,6.4,16.2C266.6,353.3,261.9,358.9,257.2,347.3z"/>
	<path d="M234.1,300.8c-0.6,3.6,0.7,7.7-3.4,11.8c-2.8-5.1-5.4-9.9-8.1-14.6c-0.1-0.1-0.8,0-1.1,0.2c-0.3,0.2-0.5,0.7-0.8,1
		c-7.2-20.6-7-40.8,2.7-60.6c1.8,5.2-4.8,15.3,8.2,14.1c1.9,1.9,2.9,4.5,2.4,7c-2.2,11.5-0.8,22.7,1.9,33.9
		C236.5,296.1,236,298.7,234.1,300.8z"/>
	<path d="M257.2,347.3c4.1,7,8.2,3.1,12.3,0c3.8,10.3,10.2,16.5,22.2,15c2.4-0.3,4.9,1,6.5,3.3c-1,7.7,2.4,10.7,10,10
		c3.6-0.3,7.7-1.2,10.5,2.4c-14.9,0.1-29.8,0.4-44.7,0.3c-14.8-0.1-16.9-2.3-17-17C256.9,356.6,257.1,352,257.2,347.3z"/>
	<path d="M383.2,246.6c0.3,7-2.3,11.2-10,10.6c-9-15.1-18.8-29.7-29.2-43.9c3.6-2.6,5.1-8.3,11-7.7
		C368.9,216.2,379.6,229,383.2,246.6z"/>
	<path d="M182.2,280.1c-5.9-2-19.3,5.3-19-7.8c0.3-11,13-5.8,20.3-6.7c4.6-0.6,9.4-0.4,14.1,0.1c4.5,0.4,8.6,2.2,8.2,7.8
		c-0.3,4.8-4,6.3-8.1,6.5C193.1,280.2,188.4,280.1,182.2,280.1z"/>
	<path d="M419.9,265.6c4.7,0,9.4-0.3,14.1,0.1c4.1,0.4,7.6,2.6,7.4,7.3c-0.2,4.5-3.6,6.8-7.8,6.9c-9.4,0.3-18.8,0.2-28.2,0
		c-4.6-0.1-7.1-2.6-7.2-7.2c-0.1-4.3,2.8-6.2,6.4-6.7c5.1-0.6,10.2-0.6,15.3-0.9C419.9,265.3,419.9,265.5,419.9,265.6z"/>
	<path d="M374.7,207.4c-3,0.4-4.9-1.2-6.2-3.6c-1.6-3-1.1-6,1.1-8.3c7.1-7.3,14-15,21.8-21.5c5.4-4.5,9.7-1.2,11.1,4.9
		C403.5,182.8,379.1,207.1,374.7,207.4z"/>
	<path d="M207.3,172c5.9,0.4,28.3,23.2,28.8,27.8c0.3,3-1.2,4.8-3.4,6.3c-2.9,1.9-5.8,1.8-8.2-0.6c-7.3-7.2-14.5-14.5-21.5-21.9
		c-2.2-2.3-2.7-5.1-0.6-8.2C204.1,173.1,206,171.9,207.3,172z"/>
	<path d="M402.6,366.6c0.4,2.4-0.9,4.1-2.7,5.4c-2.8,2-6,2-8.3-0.2c-7.7-7.4-15.2-15-22.5-22.7c-1.8-1.9-1.8-4.7-0.3-7.2
		c1.5-2.5,4-3,6.7-2.8C380.4,339.5,402.4,361.8,402.6,366.6z"/>
	<path d="M236.2,345.4c-0.4,4.8-23,27.4-27.4,27.7c-2.7,0.1-5-0.4-6.6-2.9c-1.7-2.6-1.4-5,0.5-7c7.4-7.7,14.8-15.3,22.5-22.7
		c2.4-2.3,5.6-1.9,8.3-0.2C235.3,341.5,236.7,343.2,236.2,345.4z"/>
	<path d="M355.1,205.5c-3.5,2.6-3.4,9.7-10.2,7.9c-0.4,0.2-0.9,0.6-1.2,0.5c-18.7-7.1-38.3-9.5-57.8-12.6c9.4-7.2,20.2-2.2,30.4-3.2
		c9.7-1,9.8-0.4,6.1-8.3C335,191.2,345.7,196.9,355.1,205.5z"/>
	<path d="M308,172.1c-1,4.1-3.7,5.7-7.5,4.7c-3.8-1-5-4.2-5-7.9c0-9.3-0.4-18.7,0.1-28c0.3-7.1,3.6-10.4,10.6-5.4
		C309,147.6,305.5,160,308,172.1z"/>
	<path fill="#F0F4ED" d="M341.5,419.5c-9.3,0-18.6,0-27.9,0c-17.1,0-34.1,0.1-51.2,0.1c0-2,0.1-4,0.1-6c26.4,0.1,52.9,0.2,79.3,0.2
		C342.2,415.8,344.7,417.8,341.5,419.5z"/>
	<path fill="#F2F3E9" d="M339.6,400.9c-25.7,0.3-51.4,0.6-77.1,0.9c0-2,0-4-0.1-6c26.5,0,53,0,79.5,0.1
		C341.1,397.5,340.3,399.2,339.6,400.9z"/>
	<path d="M308,172.1c-4.2-12-1.2-24.4-1.9-36.6C311.4,147.5,307.9,159.9,308,172.1z"/>
	<path fill="#FFFEFE" d="M285.8,201.4c21-2.6,40.9,0.4,59,12.1c13.6,11.9,24.1,25.8,28.4,43.7c4.7,33-5.8,59.4-34.3,77.5
		c-5.7,3.6-4.8,8.3-4.9,13.2c-0.2,17.4-0.2,17.3-17.9,17.4c-5.9,0-11.9,0.2-17.8,0.4c-2.9-0.1-5.9-0.3-8.8-0.4
		c-18.6-0.1-18.6-0.1-19.8-18c0.6-4.7,1.6-9.4-4-12.2c-14.9-7.4-23-21.1-31.5-34.4c-4.3-15.8-6.4-31.8-2.5-48
		C240.9,226.4,259.4,209.6,285.8,201.4z"/>
	<path fill="#F4F8F4" d="M321.3,431.9c4.5,7.1-2.5,8.5-6,10.7c-5.9,3.6-12,7.5-19.6,4.7c-4.9-4.3-12.9-5.2-15-15.4
		C294.6,431.9,307.9,431.9,321.3,431.9z"/>
	<path d="M347.6,247.2c0.2,3.4-2.1,5.4-4.2,7.6c-16,16.1-31.9,32.3-47.9,48.4c-4.3,4.4-8.8,5-13.4,0.5c-7.6-7.5-15.4-14.9-22.8-22.6
		c-3.3-3.4-4.4-7.5-0.5-11.3c3.8-3.6,7-1.5,9.9,1.6c0.6,0.6,1.3,1.1,2,1.6c6.6,5.1,11.4,16.7,18.7,15.5c6.9-1.1,12.5-10.9,18.6-16.9
		c9.1-9,18.2-18.2,27.3-27.2c2.7-2.7,5.7-3.8,9.3-2.2C346.7,243,347.5,244.9,347.6,247.2z"/>
</g>
</svg>
