<?xml version="1.0" encoding="utf-8"?>
<!-- Generator: Adobe Illustrator 18.0.0, SVG Export Plug-In . SVG Version: 6.00 Build 0)  -->
<!DOCTYPE svg PUBLIC "-//W3C//DTD SVG 1.1//EN" "http://www.w3.org/Graphics/SVG/1.1/DTD/svg11.dtd">
<svg version="1.1" id="Ebene_1" xmlns="http://www.w3.org/2000/svg" xmlns:xlink="http://www.w3.org/1999/xlink" x="0px" y="0px"
	 viewBox="0 0 595.3 841.9" enable-background="new 0 0 595.3 841.9" xml:space="preserve">
<g>
	<path d="M479.4,273.7c0-0.5,0-1,0.1-1.5c-0.3-0.6-0.4-1.3-0.4-1.9c-3.9-16.4-6.4-33.3-12.6-48.7c-30.3-75.4-85.7-120-166.7-131.7
		c-0.9-0.1-1.7-0.4-2.6-0.7c-0.4,0.1-0.9,0.2-1.3,0.2c-0.7,0-1.3-0.1-1.9-0.4c-0.3,0.1-0.7,0.1-1.1,0.1c-1.1,0-2-0.3-2.7-0.8
		c-0.6,0-1.2-0.1-1.7-0.3H257c-0.3,0.1-0.6,0.1-1,0.1c-0.1,0-0.3,0-0.4,0c-0.1,0-0.2,0-0.3,0c-10.4,2.2-20.9,3.9-31.1,6.7
		C141.3,116.7,83.2,183,72.1,268c-0.1,0.9-0.4,1.8-0.8,2.7c0,0.5-0.2,1-0.3,1.5c0,0.9-0.2,1.8-0.6,2.7c0,0.5-0.1,0.9-0.2,1.4v36
		c2,9.8,4.1,19.5,6,29.3c6.3,32.7,25.1,59.5,41.5,87.4c23.6,40.3,44.3,81.8,50,128.9c2.3,18.6,2.7,37.5,3.3,56.3
		c0.7,19.9,11.5,31.2,31.5,31.2c48.2,0.1,96.3,0.2,144.5,0c20.1-0.1,32-12.1,31.9-32.4c-0.4-60.7,14.2-117.3,45.7-169.4
		c9.3-15.4,17.8-31.3,27.1-46.8c14.4-24.1,23.2-50,26.4-77.8c0.2-1.3,0.6-2.6,1-3.9c-0.1-0.7,0-1.3,0.1-2c-0.3-1.4-0.1-2.8,0.6-4
		c0-0.7,0.1-1.4,0.3-2v-30.2C479.5,275.8,479.3,274.7,479.4,273.7z"/>
	<path fill="#FFFFFF" d="M479,314.9c-0.5,1.3-0.9,2.6-1,3.9c-3.2,27.8-12,53.7-26.4,77.8c-9.2,15.5-17.8,31.4-27.1,46.8
		c-31.5,52.1-46,108.7-45.7,169.4c0.1,20.3-11.8,32.3-31.9,32.4c-48.2,0.2-96.3,0.2-144.5,0c-20-0.1-30.8-11.4-31.5-31.2
		c-0.7-18.8-1.1-37.7-3.3-56.3c-5.7-47.1-26.4-88.6-50-128.9c-16.3-27.9-35.2-54.7-41.5-87.4c-1.9-9.8-4-19.5-6-29.3v491.8h190.5
		c-15.7-5.5-32.1-9.8-43.6-25.5h115.1c-11.1,15.8-28.3,20.2-45,25.5H480V317.5C479.4,316.8,479.1,315.9,479,314.9z M191.6,652
		c28.1-0.1,56.2,0,84.3,0c27.3,0,54.6,0,81.9,0c14.3,0,20.9,5.4,21.1,17.1c0.3,12.4-6.4,18.5-21.1,18.5c-55.4,0.1-110.8,0.1-166.2,0
		c-14,0-20.5-6-20.5-17.9C171.1,657.7,177.6,652,191.6,652z M379,711.7c-0.1,11.7-6.8,17.4-20.8,17.4c-27.7,0.1-55.4,0-83.1,0
		c-27.7,0-55.4,0.1-83.1,0c-14,0-20.7-5.7-20.8-17.4c-0.1-11.9,6.5-18.2,20.2-18.3c55.8-0.1,111.6-0.1,167.4,0
		C372.5,693.5,379.1,699.9,379,711.7z M357.5,770.6c-55.4,0.1-110.8,0.1-166.1,0c-15.3,0-22.5-7.7-20.1-21.3
		c1.8-10.1,8.7-13.6,18.3-13.6c28.5,0.1,57,0,85.5,0c27.3,0,54.6-0.1,81.9,0c15.9,0,22,4.9,22.1,17.1
		C379.2,765.5,373.1,770.6,357.5,770.6z"/>
	<path fill="#FFFFFF" d="M255.3,88c-0.3,0-0.7,0-1-0.1H70.1v178.8c0.9,1.1,1.3,2.5,1.2,3.9c0.3-0.9,0.6-1.8,0.8-2.7
		c11.1-85,69.2-151.4,152.2-173.4c10.2-2.7,20.7-4.5,31.1-6.7C255.3,88,255.3,88,255.3,88z"/>
	<path fill="#FFFFFF" d="M480,267.1V87.9H299.4c-0.5,0.5-1.2,1-2.1,1.2c0.8,0.3,1.7,0.6,2.6,0.7c81,11.8,136.4,56.4,166.7,131.7
		c6.2,15.4,8.7,32.3,12.6,48.7C479.1,269.1,479.4,268,480,267.1z"/>
	<path d="M260.6,803.9c-15.7-5.5-32.1-9.8-43.6-25.5c38.5,0,76.2,0,115.1,0c-11.1,15.8-28.3,20.2-45,25.5
		C278.3,803.9,269.4,803.9,260.6,803.9z"/>
	<path d="M276,652c27.3,0,54.6,0,81.9,0c14.3,0,20.9,5.4,21.1,17.1c0.3,12.4-6.4,18.5-21.1,18.5c-55.4,0.1-110.8,0.1-166.2,0
		c-14,0-20.5-6-20.5-17.9c0-11.9,6.5-17.6,20.5-17.7C219.7,651.9,247.8,652,276,652z"/>
	<path d="M275.1,729.2c-27.7,0-55.4,0.1-83.1,0c-14,0-20.7-5.7-20.8-17.4c-0.1-11.9,6.5-18.2,20.2-18.3c55.8-0.1,111.6-0.1,167.4,0
		c13.7,0,20.4,6.4,20.2,18.3c-0.1,11.7-6.8,17.4-20.8,17.4C330.5,729.3,302.8,729.2,275.1,729.2z"/>
	<path d="M275,735.8c27.3,0,54.6-0.1,81.9,0c15.9,0,22,4.9,22.1,17.1c0.1,12.5-5.9,17.7-21.5,17.7c-55.4,0.1-110.8,0.1-166.1,0
		c-15.3,0-22.5-7.7-20.1-21.3c1.8-10.1,8.7-13.6,18.3-13.6C218,735.8,246.5,735.8,275,735.8z"/>
</g>
</svg>
