<?xml version="1.0" encoding="utf-8"?>
<!-- Generator: Adobe Illustrator 18.0.0, SVG Export Plug-In . SVG Version: 6.00 Build 0)  -->
<!DOCTYPE svg PUBLIC "-//W3C//DTD SVG 1.1//EN" "http://www.w3.org/Graphics/SVG/1.1/DTD/svg11.dtd">
<svg version="1.1" id="Ebene_1" xmlns="http://www.w3.org/2000/svg" xmlns:xlink="http://www.w3.org/1999/xlink" x="0px" y="0px"
	 viewBox="0 0 595.3 841.9" enable-background="new 0 0 595.3 841.9" xml:space="preserve">
<g>
	<g>
		<path fill="#FFFFFF" d="M481.7,437c-159.9,0-319.8,0-479.6,0C2,295.4,2,153.7,2,12c161.2,0,322.5,0,483.7,0c0,140.3,0,280.6,0,421
			c-6.7-8.4-12.8-17.2-20-25.2c-54.8-60.2-115.3-114.5-178.8-165.2c-50.8-40.5-103.5-78.6-155.2-118c-2.7-2.1-5.5-6-5.6-9.2
			c-1-29.8-11.1-43.7-39.9-51.7C63.4,57.4,44.4,45.4,28,28.8c-3.5-3.5-7.4-6.8-11.5-9.7c-6.6-4.7-10.4-2.9-11.2,5.3
			c-3.7,35,0.6,68.2,25.1,95.6c16.4,18.3,36.5,30.2,62.4,25.5c6.3-1.1,9.6,0.4,13.8,4.4c66.6,62.5,134.8,123.3,208.1,177.9
			C368.2,367.5,421.9,407,481.7,437z"/>
		<path d="M481.7,437c-59.8-30.1-113.5-69.5-166.9-109.3c-73.4-54.6-141.5-115.4-208.1-177.9c-4.2-4-7.6-5.5-13.8-4.4
			c-25.9,4.7-46-7.2-62.4-25.5C5.9,92.6,1.6,59.4,5.2,24.4c0.9-8.2,4.7-10,11.2-5.3c4.1,2.9,8,6.2,11.5,9.7
			c16.5,16.5,35.4,28.6,58.1,34.9c28.8,8,38.9,22,39.9,51.7c0.1,3.2,2.9,7.1,5.6,9.2c51.7,39.4,104.4,77.4,155.2,118
			c63.5,50.7,124,105,178.8,165.2c7.2,7.9,13.4,16.7,20,25.2C484.4,434.3,483,435.7,481.7,437z"/>
	</g>
</g>
</svg>
