<?xml version="1.0" encoding="utf-8"?>
<!-- Generator: Adobe Illustrator 18.0.0, SVG Export Plug-In . SVG Version: 6.00 Build 0)  -->
<!DOCTYPE svg PUBLIC "-//W3C//DTD SVG 1.1//EN" "http://www.w3.org/Graphics/SVG/1.1/DTD/svg11.dtd">
<svg version="1.1" id="Ebene_1" xmlns="http://www.w3.org/2000/svg" xmlns:xlink="http://www.w3.org/1999/xlink" x="0px" y="0px"
	 viewBox="0 0 595.3 841.9" enable-background="new 0 0 595.3 841.9" xml:space="preserve">
<g>
	<g>
		<path fill="#FFFFFF" d="M2.4,255.6c0-78.9,0-157.8,0-237.2c74.3,0,148.7,0,223,0c-18.8,38.1-16.9,77.8,4.6,98.9
			c7.5-4.5,14.4-9.8,22.3-13.1c7.8-3.2,16.5-4.2,24.7-6.2c0.7-3.6,1.5-7.1,2-10.6c3.7-22.8-7.2-41-28.1-50.9
			c-8.7-4.1-15.5-12-23.2-18.2c121,0,242,0,363,0c0,162.1,0,324.2,0,486.4c-196.1,0-392.2,0-588.4,0c0-77.5,0-155,0-232.5
			c4.9,9.4,7.5,21.7,24.3,18.4c0-7.6,0-15.3,0-23c1.3-0.1,2.5-0.2,3.8-0.4c1.5,7.4,3,14.9,4.6,22.3c0.9,4.2,0.6,9.7,3.2,12.1
			c4.1,3.8,10.1,5.4,15.3,7.9c1-5,3.2-10.2,2.7-15.1c-0.5-4.4-4.5-8.3-5.9-12.7c-4.4-13.7-9.7-27.2-12-41.3
			c-2-12.5-0.4-25.6-0.4-37.5C23.9,211.4,13.5,226.4,2.4,255.6z M413.4,460c5.2-6,7.6-8.6,9.7-11.4c8.4-11.1,17.9-22.2,11.4-37.3
			c-6.1-14.3-19.3-14.4-32.3-13.9c-1.2,0-2.4-0.2-3.5-0.4c-16.1-2.8-24.1-13.6-18.5-28.9c3.5-9.5,9.9-19.5,17.8-25.5
			c24.9-19,55.8-23.6,84.6-0.5c41.8,33.5,90.9,16,102-36.5c20.1-95.9-46.1-178.4-145.8-189.6c-50.9-5.7-97.4,10.5-141,35.7
			c-3.3,1.9-6.4,7.9-6,11.7c6.4,60.4,13.6,120.8,20.1,181.2c1,8.9,4.6,15.2,10.8,21.2c21.5,20.9,42.8,42.1,63.8,63.6
			C395.8,438.9,404.2,449.4,413.4,460z M308.8,425.3c4.4,4,7.3,6.5,10,9.2c18,17.8,35.8,35.7,54,53.3c4.8,4.6,10.2,8.8,15.8,12.2
			c7.3,4.4,14.5,2.7,20.5-3.3c6.2-6.2,6.7-13.6,2.5-20.6c-4.1-6.7-9.2-12.8-14.7-18.4c-29.5-30.3-59.4-60.2-88.7-90.6
			c-4.1-4.2-7.6-10.5-8.3-16.1c-5.5-44.6-10.2-89.4-15.2-134c-2.6-23.3-5.4-46.6-8.1-70.1c-21.3,4.9-32.1,18.5-30.2,37.4
			c4.5,43.8,9.1,87.6,13.8,131.8c-25.1-24.4-49.8-48.5-76.2-74.2c-4.9,10.9-8.9,20.6-13.5,29.9c-4,8.1-1.7,13.6,4.5,19.7
			c25.4,24.9,49.7,51,75.9,75c13.7,12.5,18.7,26.4,20,44.1c1.8,24.7,5.5,49.4,9.5,73.8c1.6,9.7,7.6,18.2,19.4,16.7
			c12.4-1.5,14.1-11.5,13.5-21.4C312.3,462.3,310.5,445.1,308.8,425.3z M136.9,142.6c-46.8-4.3-90.1,48.4-79,95.9
			c24.6,3.4,48.4,6.7,71.5,9.8c7-13,14.4-26.7,21.7-40.5c0.8-1.6,1-3.8,0.6-5.6C146.8,182.5,141.9,162.9,136.9,142.6z M263.1,473.4
			c-2.7-25.4-4.7-50.4-8.3-75.3c-1-7-5.3-14.6-10.3-19.8c-18.1-18.8-37.1-36.6-55.7-54.8c-2.4-2.3-5-4.3-8-6.8
			C166.3,387.4,189.4,443.5,263.1,473.4z M305.9,52.5c1.3,5.5,1.8,10.9,3.8,15.6c1.5,3.6,4.8,6.4,7.3,9.5c2.6-3.5,6.9-6.6,7.7-10.4
			c4-21-10.8-40.3-33.6-43.5c-12.6-1.8-25.4-1.6-40.3-2.4c3.8,2.7,5.7,4.9,8.1,5.6c15.6,4.7,25.8,14.1,29.3,30.6
			c0.6,2.7,6.9,7,8.3,6.2C299.9,62,301.9,57.6,305.9,52.5z M231,204.1c-1-0.3-2-0.7-3-1c-8.3,12.9-16.6,25.8-22.8,35.6
			c12.9,13.1,24,24.4,34.2,34.9C236.7,251.5,233.9,227.8,231,204.1z M238.6,154.6c10.4-7,18.1-14.1,27.1-17.6
			c12.5-4.9,12.3-12.8,9.6-23.5c-14.1,1.4-27.1,5.8-34.8,17.2C236.9,136,239.1,145.1,238.6,154.6z M175.2,232.3
			c-4-4.1-8-8.3-12.1-12.5c-22.8,20.6-24.5,41-4.9,51.7c2.5-6.6,4.7-13.3,7.6-19.8C168.5,245.3,171.8,239.1,175.2,232.3z
			 M349.8,483.9c-8.2-7.7-14.9-13.9-21.9-20.5c0,8,0,15.9,0,25.3C335.2,487.1,341.8,485.7,349.8,483.9z"/>
		<path d="M227.8,18.4c7.7,6.2,14.6,14.1,23.2,18.2c20.9,9.9,31.8,28.1,28.1,50.9c-0.6,3.5-1.3,6.9-2,10.6c-8.3,2-16.9,3-24.7,6.2
			c-7.9,3.2-14.8,8.6-22.3,13.1c-21.5-21.1-23.5-60.8-4.6-98.9C226.2,18.4,227,18.4,227.8,18.4z"/>
		<path d="M2.4,255.6c11.1-29.2,21.6-44.2,35.7-52.6c0,11.9-1.6,25,0.4,37.5c2.3,14,7.6,27.6,12,41.3c1.4,4.4,5.5,8.3,5.9,12.7
			c0.5,4.9-1.7,10-2.7,15.1c-5.2-2.5-11.3-4.2-15.3-7.9c-2.6-2.4-2.3-8-3.2-12.1c-1.6-7.4-3.1-14.9-4.6-22.3
			c-1.3,0.1-2.5,0.2-3.8,0.4c0,7.7,0,15.4,0,23c-16.9,3.3-19.4-9-24.3-18.4C2.4,266.7,2.4,261.2,2.4,255.6z"/>
		<path d="M413.4,460c-9.2-10.6-17.6-21.2-26.9-30.7c-21-21.5-42.3-42.7-63.8-63.6c-6.2-6.1-9.9-12.3-10.8-21.2
			c-6.5-60.4-13.7-120.8-20.1-181.2c-0.4-3.7,2.7-9.8,6-11.7c43.6-25.2,90.1-41.4,141-35.7c99.7,11.2,165.9,93.7,145.8,189.6
			c-11,52.6-60.1,70-102,36.5c-28.8-23-59.7-18.5-84.6,0.5c-7.9,6.1-14.3,16-17.8,25.5c-5.6,15.3,2.4,26.1,18.5,28.9
			c1.2,0.2,2.4,0.4,3.5,0.4c13-0.5,26.2-0.4,32.3,13.9c6.5,15.2-3,26.3-11.4,37.3C421,451.4,418.6,454,413.4,460z M493.6,172.9
			c-1-8.3-1.8-14.5-2.5-20.7c-5.4,0.9-10.9,2.7-16.3,2.6c-5.3-0.1-10.6-2.3-15.9-3.5c-3.9-0.8-8.7-3.1-11.5-1.7
			c-2.7,1.4-3.3,6.8-4.7,10.5c-1.1,2.9-1.2,7-3.2,8.5c-12.6,9.8-12.6,14.8,2,22.2c7.5,3.8,8.6,7.3,4,14.6c-5.8,9.2-2.4,19.4,7,25.4
			c8.8,5.6,20.6,4.7,24.8-4.6c5.6-12.4,14.2-16.6,26.7-18.9c8.6-1.5,16.1-8.8,14.9-18.7c-1.1-9.1-8.5-13.6-17.7-14.6
			C498.1,173.7,495.1,173.1,493.6,172.9z M346.5,330c0.4,1.6,0.5,6.8,2.8,10.5c2.5,4,6.7,8.4,10.9,9.3c2.6,0.6,7.6-4.2,9.7-7.7
			c10.4-16.6,25.1-26.9,44-31.3c9.2-2.1,16.6-5.7,17.7-16c1.1-10.5-5.1-17.5-13.6-21.4c-6.1-2.8-13.6-4.3-20.4-3.9
			C371.2,271.1,346.8,299,346.5,330z M337.2,209c-2.9,10.6,0.2,16.7,9.3,18.3c10.1,1.8,17.8-2.9,18.8-12.5
			c0.8-7.4,4.3-10.4,11.1-11.2c2.7-0.3,6-0.5,7.8-2.1c3.7-3.4,8.9-7.5,9.2-11.7c0.3-4.2-3.5-10.7-7.3-12.8
			c-6.5-3.5-6.3-6.6-4.9-12.9c0.9-4.4-1.5-11.8-4.9-14c-3-1.9-11,0-14,3.1c-6.4,6.5-12.2,6.6-20.2,4c-3.8-1.3-9.9-0.5-12.8,1.9
			c-2.2,1.9-1.1,7.8-1.5,11.9c-0.4,4.6,0.4,10-1.7,13.7c-3.9,6.9-3.6,11.3,3.2,15.8C332.5,202.4,334.6,206.1,337.2,209z
			 M562.4,265.2c-0.2-10.9-5.3-14.6-16.7-16.4c-5.6-0.9-10.9-4.2-16.2-6.7c-4.7-2.2-9.2-4.8-13.7-7.2c-2.5,4.9-4.9,9.7-7.4,14.6
			c-1.8,3.5-2.8,8.5-5.7,10c-13,7-13.4,13.6-1.5,22.9c3.6,2.8,6.8,7.7,7.6,12.1c2.4,13,8.2,19.3,18.4,17.9
			c9.1-1.2,13.7-9.5,11.5-21.7c-1.4-8.1,0.9-11.5,9.6-11.8C557.7,278.7,562.2,272.6,562.4,265.2z"/>
		<path d="M308.8,425.3c1.6,19.8,3.4,37.1,4.4,54.4c0.5,9.9-1.2,19.8-13.5,21.4c-11.8,1.5-17.8-7-19.4-16.7
			c-4-24.5-7.7-49.1-9.5-73.8c-1.3-17.8-6.3-31.6-20-44.1c-26.2-24-50.4-50.1-75.9-75c-6.2-6-8.5-11.6-4.5-19.7
			c4.7-9.3,8.6-19,13.5-29.9c26.4,25.7,51.1,49.8,76.2,74.2c-4.6-44.2-9.3-88-13.8-131.8c-1.9-18.9,8.9-32.5,30.2-37.4
			c2.7,23.4,5.5,46.7,8.1,70.1c5,44.7,9.7,89.4,15.2,134c0.7,5.7,4.3,11.9,8.3,16.1c29.3,30.4,59.2,60.3,88.7,90.6
			c5.5,5.6,10.6,11.7,14.7,18.4c4.2,6.9,3.7,14.4-2.5,20.6c-6,6-13.1,7.6-20.5,3.3c-5.7-3.4-11.1-7.5-15.8-12.2
			c-18.2-17.6-36-35.5-54-53.3C316.1,431.8,313.2,429.3,308.8,425.3z"/>
		<path d="M136.9,142.6c5,20.3,9.9,39.9,14.7,59.7c0.4,1.7,0.2,4-0.6,5.6c-7.2,13.8-14.7,27.6-21.7,40.5
			c-23.1-3.2-46.9-6.4-71.5-9.8C46.8,191,90.1,138.3,136.9,142.6z"/>
		<path d="M263.1,473.4c-73.6-29.9-96.8-86.1-82.4-156.7c3,2.5,5.6,4.5,8,6.8c18.7,18.2,37.7,36,55.7,54.8c5,5.2,9.3,12.8,10.3,19.8
			C258.4,423,260.4,448.1,263.1,473.4z M227.3,420.8c0.3,0.8,0.7,1.6,1,2.3c2.8-1.4,8.2-3.1,8.1-4.3c-0.6-9.6-1.7-19.3-4.1-28.5
			c-0.5-1.8-7.2-2.8-11-2.6c-4.7,0.2-9.4,1.8-14,3.3c-2.7,0.9-5,2.8-7.5,4.2c1.4,2.4,3,4.8,4.2,7.3c1.5,3.2,3.8,6.6,3.6,9.8
			c-0.8,8.3,3.3,13,11.2,11.2C221.7,422.9,224.4,421.8,227.3,420.8z"/>
		<path d="M305.9,52.5c-4,5.2-6,9.5-9.3,11.2c-1.4,0.7-7.7-3.5-8.3-6.2c-3.5-16.5-13.7-25.9-29.3-30.6c-2.4-0.7-4.3-2.9-8.1-5.6
			c14.8,0.8,27.7,0.7,40.3,2.4c22.7,3.2,37.5,22.5,33.6,43.5c-0.7,3.8-5,7-7.7,10.4c-2.5-3.1-5.9-5.9-7.3-9.5
			C307.7,63.3,307.2,58,305.9,52.5z"/>
		<path d="M231,204.1c2.9,23.7,5.7,47.4,8.4,69.5c-10.3-10.5-21.3-21.7-34.2-34.9c6.3-9.8,14.6-22.7,22.8-35.6
			C229,203.4,230,203.7,231,204.1z"/>
		<path d="M238.6,154.6c0.5-9.5-1.7-18.6,1.9-23.9c7.7-11.4,20.7-15.8,34.8-17.2c2.7,10.7,2.9,18.7-9.6,23.5
			C256.6,140.5,249,147.6,238.6,154.6z"/>
		<path d="M175.2,232.3c-3.4,6.8-6.7,13-9.5,19.4c-2.8,6.5-5.1,13.2-7.6,19.8c-19.6-10.7-17.9-31.1,4.9-51.7
			C167.1,224,171.2,228.2,175.2,232.3z"/>
		<path d="M349.8,483.9c-8,1.8-14.6,3.2-21.9,4.8c0-9.4,0-17.3,0-25.3C335,470,341.6,476.2,349.8,483.9z"/>
		<path fill="#FFFFFF" d="M493.6,172.9c1.5,0.2,4.5,0.8,7.6,1.1c9.2,1,16.6,5.4,17.7,14.6c1.2,9.9-6.3,17.2-14.9,18.7
			c-12.6,2.2-21.1,6.4-26.7,18.9c-4.2,9.3-16.1,10.2-24.8,4.6c-9.3-6-12.7-16.1-7-25.4c4.6-7.3,3.5-10.8-4-14.6
			c-14.5-7.4-14.6-12.4-2-22.2c2.1-1.6,2.1-5.7,3.2-8.5c1.4-3.7,2-9,4.7-10.5c2.8-1.5,7.6,0.8,11.5,1.7c5.3,1.1,10.6,3.3,15.9,3.5
			c5.4,0.1,10.9-1.6,16.3-2.6C491.8,158.4,492.6,164.6,493.6,172.9z"/>
		<path fill="#FFFFFF" d="M346.5,330c0.3-31,24.7-58.9,51.1-60.5c6.7-0.4,14.2,1.1,20.4,3.9c8.5,3.9,14.7,10.9,13.6,21.4
			c-1.1,10.3-8.5,13.9-17.7,16c-18.9,4.3-33.6,14.7-44,31.3c-2.2,3.5-7.2,8.3-9.7,7.7c-4.2-1-8.4-5.3-10.9-9.3
			C347,336.8,346.9,331.6,346.5,330z"/>
		<path fill="#FFFFFF" d="M337.2,209c-2.6-3-4.7-6.6-7.8-8.7c-6.8-4.5-7.2-8.9-3.2-15.8c2.1-3.7,1.3-9,1.7-13.7
			c0.4-4.1-0.8-10,1.5-11.9c2.9-2.4,9-3.2,12.8-1.9c8,2.7,13.8,2.6,20.2-4c3-3,11.1-5,14-3.1c3.4,2.2,5.8,9.7,4.9,14
			c-1.4,6.4-1.6,9.4,4.9,12.9c3.8,2.1,7.6,8.6,7.3,12.8c-0.3,4.2-5.5,8.3-9.2,11.7c-1.8,1.6-5.1,1.8-7.8,2.1
			c-6.8,0.8-10.3,3.8-11.1,11.2c-1,9.6-8.7,14.3-18.8,12.5C337.4,225.7,334.3,219.6,337.2,209z"/>
		<path fill="#FFFFFF" d="M562.4,265.2c-0.2,7.4-4.7,13.5-14,13.7c-8.7,0.3-11,3.7-9.6,11.8c2.2,12.3-2.4,20.5-11.5,21.7
			c-10.2,1.3-16-5-18.4-17.9c-0.8-4.4-4-9.3-7.6-12.1c-12-9.3-11.6-15.9,1.5-22.9c2.9-1.5,3.9-6.6,5.7-10c2.5-4.8,4.9-9.7,7.4-14.6
			c4.6,2.4,9.1,5,13.7,7.2c5.3,2.5,10.6,5.8,16.2,6.7C557.1,250.7,562.2,254.3,562.4,265.2z"/>
		<path fill="#FFFFFF" d="M227.3,420.8c-2.8,0.9-5.6,2.1-8.5,2.7c-7.9,1.8-12-2.9-11.2-11.2c0.3-3.1-2.1-6.6-3.6-9.8
			c-1.2-2.5-2.8-4.9-4.2-7.3c2.5-1.4,4.8-3.3,7.5-4.2c4.6-1.5,9.3-3.1,14-3.3c3.8-0.2,10.6,0.8,11,2.6c2.4,9.3,3.5,18.9,4.1,28.5
			c0.1,1.3-5.3,2.9-8.1,4.3C227.9,422.4,227.6,421.6,227.3,420.8z"/>
	</g>
</g>
</svg>
