<?xml version="1.0" encoding="utf-8"?>
<!-- Generator: Adobe Illustrator 18.0.0, SVG Export Plug-In . SVG Version: 6.00 Build 0)  -->
<!DOCTYPE svg PUBLIC "-//W3C//DTD SVG 1.1//EN" "http://www.w3.org/Graphics/SVG/1.1/DTD/svg11.dtd">
<svg version="1.1" id="Ebene_1" xmlns="http://www.w3.org/2000/svg" xmlns:xlink="http://www.w3.org/1999/xlink" x="0px" y="0px"
	 viewBox="0 0 595.3 841.9" enable-background="new 0 0 595.3 841.9" xml:space="preserve">
<g>
	<g>
		<path d="M215.7,5.8c10.3,0,20.6,0,30.9,0c4.8,0.6,9.6,1.2,14.4,1.9c33.8,4.8,65.4,16.1,95.5,32c41.8,22.1,78.3,51.2,110.9,85.3
			c43.2,45.3,76.7,96.8,97.8,156c15.8,44.5,23.2,90,16.2,137.2c-5.5,37.2-20,70.4-44.5,99c-27.8,32.3-62.2,55.7-101.3,72.3
			c-32.7,13.9-66.7,21-102.5,15.6c-29.3-4.4-54.1-16.9-73.1-40.1c-27-33-45.8-70.1-55.9-111.5c-6.3-25.7-12.1-51.6-18.4-77.3
			c-3.6-14.5-8.9-28.4-17.6-40.7c-11.5-16.1-27-24-46.8-20.3c-26.5,4.9-41.3,25.5-38.6,52.7c1.2,12.3,3,24.5,4.2,36.9
			c0.9,9.3,1,18.6-2.6,27.5c-3.8,9.5-11,14.2-21.1,13.6c-11.8-0.7-21.3-6.6-30.2-13.8c-0.8-0.6-1.2-1.8-1.6-2.9
			c-12-31.2-18.9-63.5-21.8-96.8c-0.5-5.4-1.1-10.8-1.6-16.1c0-14.2,0-28.4,0-42.6c0.3-1.6,0.7-3.3,0.8-4.9
			c2.2-36.1,8.9-71.3,21.1-105.4C45,121.2,67.4,83.4,102.2,53.9c27-22.9,57.6-38.5,92.6-44.8C201.7,7.8,208.7,6.9,215.7,5.8z
			 M236.7,54.9c-15.5,0-26.6,3.2-36.6,9.8c-20.3,13.5-27.2,36.8-16.8,58.3c6.6,13.6,16.8,23.9,30.5,30.2c17.3,7.9,33.6,6,48.1-6.7
			c10.7-9.4,17.1-21.4,19.9-35.3c2.1-10.2,1.9-20.3-2.9-29.7C269.4,63.1,253.1,55.8,236.7,54.9z M373.9,235.6
			c14.1,0.1,32.9-10.7,44.4-27.6c12.3-18.1,11.1-39.2-3.3-55.7c-15.2-17.5-41.5-24.4-63.1-16c-17.3,6.7-27.9,19.2-29.2,38
			c-1.3,17.2,4.1,32.7,15.3,45.9C346.3,229.9,357,235.6,373.9,235.6z M531.3,323.2c0-28.8-18.6-51.9-43.8-58
			c-20.7-5.1-39.5,2.8-50.2,21.2c-6.4,11.1-9.3,23.2-8.6,36c1.2,23.3,15.1,39.3,37.3,43.2c15,2.6,29.4,0.1,42.7-7.4
			C523.8,349.7,531,336.5,531.3,323.2z M469.1,476c-1.5-6.9-2.4-14-4.7-20.6c-7.5-21.1-26-33.1-47.6-30.4c-18,2.2-32.8,11-43.4,26
			c-9.8,13.9-11,28.8-3.4,44.1c7.7,15.6,20.2,26,36.5,31.7c15.7,5.5,30.2,2.7,42.9-8.1C462.2,507.5,467.8,493,469.1,476z"/>
		<path fill="#FFFFFF" d="M7.8,316.4c0.5,5.4,1.2,10.7,1.6,16.1c2.9,33.2,9.8,65.6,21.8,96.8c0.4,1,0.8,2.2,1.6,2.9
			c8.8,7.2,18.4,13.1,30.2,13.8c10.2,0.6,17.3-4.1,21.1-13.6c3.6-8.9,3.5-18.2,2.6-27.5c-1.2-12.3-3-24.6-4.2-36.9
			c-2.7-27.2,12.1-47.8,38.6-52.7c19.8-3.7,35.3,4.2,46.8,20.3c8.8,12.3,14,26.2,17.6,40.7c6.4,25.7,12.2,51.6,18.4,77.3
			C214.1,495,233,532,260,565.1c19,23.3,43.8,35.8,73.1,40.1c35.8,5.3,69.7-1.7,102.5-15.6c39-16.6,73.5-39.9,101.3-72.3
			c24.5-28.5,39-61.8,44.5-99c7-47.2-0.4-92.8-16.2-137.2c-21.1-59.2-54.5-110.7-97.8-156c-32.6-34.1-69.1-63.2-110.9-85.3
			c-30.1-15.9-61.7-27.2-95.5-32c-4.8-0.7-9.6-1.3-14.4-1.9c112.7,0,225.3,0,338,0c0,200.6,0,401.1,0,601.8
			c-192.2,0-384.5,0-576.8,0C7.8,510.6,7.8,413.5,7.8,316.4z"/>
		<path fill="#FFFFFF" d="M215.7,5.8c-7,1.1-14,2-20.9,3.3c-35,6.3-65.6,21.9-92.6,44.8C67.4,83.4,45,121.2,29.8,163.5
			c-12.3,34-19,69.3-21.1,105.4c-0.1,1.6-0.5,3.3-0.8,4.9c0-89.3,0-178.6,0-268C77.1,5.8,146.4,5.8,215.7,5.8z"/>
		<path fill="#FFFFFF" d="M236.7,54.9c16.4,0.8,32.7,8.1,42.2,26.7c4.8,9.4,5,19.5,2.9,29.7c-2.8,13.9-9.2,25.9-19.9,35.3
			c-14.5,12.7-30.8,14.7-48.1,6.7c-13.7-6.3-23.9-16.6-30.5-30.2c-10.4-21.5-3.5-44.8,16.8-58.3C210.1,58.1,221.1,54.9,236.7,54.9z"
			/>
		<path fill="#FFFFFF" d="M373.9,235.6c-16.9,0-27.6-5.7-36-15.5c-11.2-13.2-16.5-28.6-15.3-45.9c1.4-18.8,12-31.3,29.2-38
			c21.6-8.4,47.9-1.5,63.1,16c14.3,16.5,15.5,37.6,3.3,55.7C406.8,224.9,388,235.7,373.9,235.6z"/>
		<path fill="#FFFFFF" d="M531.3,323.2c-0.3,13.3-7.5,26.5-22.6,34.9c-13.3,7.4-27.6,10-42.7,7.4c-22.2-3.9-36.1-19.9-37.3-43.2
			c-0.7-12.8,2.2-24.9,8.6-36c10.7-18.4,29.4-26.2,50.2-21.2C512.7,271.3,531.3,294.4,531.3,323.2z"/>
		<path fill="#FFFFFF" d="M469.1,476c-1.3,17-6.9,31.6-19.8,42.6c-12.6,10.8-27.1,13.6-42.9,8.1c-16.3-5.7-28.8-16.1-36.5-31.7
			c-7.6-15.3-6.4-30.2,3.4-44.1c10.6-15,25.4-23.7,43.4-26c21.6-2.7,40.1,9.3,47.6,30.4C466.7,462,467.5,469.1,469.1,476z"/>
	</g>
</g>
</svg>
